<svg width="40" height="40" viewBox="0 0 40 40" fill="none" xmlns="http://www.w3.org/2000/svg">
<g clip-path="url(#clip0_16_980)">
<path d="M18.3335 30H21.6668V26.6667H18.3335V30ZM20.0002 3.33337C10.8002 3.33337 3.3335 10.8 3.3335 20C3.3335 29.2 10.8002 36.6667 20.0002 36.6667C29.2002 36.6667 36.6668 29.2 36.6668 20C36.6668 10.8 29.2002 3.33337 20.0002 3.33337ZM20.0002 33.3334C12.6502 33.3334 6.66683 27.35 6.66683 20C6.66683 12.65 12.6502 6.66671 20.0002 6.66671C27.3502 6.66671 33.3335 12.65 33.3335 20C33.3335 27.35 27.3502 33.3334 20.0002 33.3334ZM20.0002 10C16.3168 10 13.3335 12.9834 13.3335 16.6667H16.6668C16.6668 14.8334 18.1668 13.3334 20.0002 13.3334C21.8335 13.3334 23.3335 14.8334 23.3335 16.6667C23.3335 20 18.3335 19.5834 18.3335 25H21.6668C21.6668 21.25 26.6668 20.8334 26.6668 16.6667C26.6668 12.9834 23.6835 10 20.0002 10Z" fill="#858585"/>
</g>
<defs>
<clipPath id="clip0_16_980">
<rect width="40" height="40" fill="white"/>
</clipPath>
</defs>
</svg>
