<svg width="40" height="40" viewBox="0 0 40 40" fill="none" xmlns="http://www.w3.org/2000/svg">
<g clip-path="url(#clip0_16_968)">
<path d="M29.9998 13.3333H28.3332V9.99996C28.3332 5.39996 24.5998 1.66663 19.9998 1.66663C15.3998 1.66663 11.6665 5.39996 11.6665 9.99996V13.3333H9.99984C8.1665 13.3333 6.6665 14.8333 6.6665 16.6666V33.3333C6.6665 35.1666 8.1665 36.6666 9.99984 36.6666H29.9998C31.8332 36.6666 33.3332 35.1666 33.3332 33.3333V16.6666C33.3332 14.8333 31.8332 13.3333 29.9998 13.3333ZM14.9998 9.99996C14.9998 7.23329 17.2332 4.99996 19.9998 4.99996C22.7665 4.99996 24.9998 7.23329 24.9998 9.99996V13.3333H14.9998V9.99996ZM29.9998 33.3333H9.99984V16.6666H29.9998V33.3333ZM19.9998 28.3333C21.8332 28.3333 23.3332 26.8333 23.3332 25C23.3332 23.1666 21.8332 21.6666 19.9998 21.6666C18.1665 21.6666 16.6665 23.1666 16.6665 25C16.6665 26.8333 18.1665 28.3333 19.9998 28.3333Z" fill="#858585"/>
</g>
<defs>
<clipPath id="clip0_16_968">
<rect width="40" height="40" fill="white"/>
</clipPath>
</defs>
</svg>
