<svg width="658" height="416" viewBox="0 0 658 416" fill="none" xmlns="http://www.w3.org/2000/svg">
<g filter="url(#filter0_d_5_9499)">
<path d="M279.83 339.693C277.239 335.874 241.151 303.669 238.441 301.25L244.599 299.901C244.599 299.901 277.598 335.721 279.83 339.693Z" fill="#E3EAED"/>
<path opacity="0.5" d="M279.83 339.693C277.239 335.874 241.151 303.669 238.441 301.25L244.599 299.901C244.599 299.901 277.598 335.721 279.83 339.693Z" fill="white"/>
<path d="M279.949 339.976C279.949 339.976 279.949 339.976 279.949 340.129C279.67 340.943 277.199 341.656 274.429 342.14H274.33C271.778 342.743 269.167 342.812 266.598 342.344C265.821 341.656 239.776 325.006 223.834 314.823L223.196 314.441H223.077L220.825 312.99L214.249 308.815L211.698 307.185L238.5 301.33C240.035 302.679 252.21 313.55 262.991 323.453L264.107 324.472C265.103 325.388 266.1 326.305 267.056 327.17C271.503 331.073 275.787 335.271 279.889 339.747C279.889 339.747 279.889 339.874 279.889 339.925L279.949 339.976Z" fill="#E3EAED"/>
<g opacity="0.1">
<path opacity="0.1" d="M279.949 339.967C279.949 339.967 279.949 339.967 279.949 340.119C279.67 340.934 277.199 341.647 274.429 342.131H274.329C271.778 342.734 269.166 342.803 266.598 342.334C265.8 341.647 239.078 324.513 223.196 314.33C225.806 315.959 260.081 337.013 267.036 327.059C271.483 330.962 275.766 335.16 279.869 339.636C279.869 339.636 279.869 339.763 279.869 339.814L279.949 339.967Z" fill="black"/>
</g>
<path d="M633 377.554C633 382.137 613.252 383.613 610.562 382.646C607.872 381.678 392.657 273.479 392.657 273.479L471.749 233.483L474.04 235.494L475.037 236.385C489.623 249.267 533.164 287.837 571.185 321.774L573.437 323.785L576.426 326.331C602.79 350.008 625.647 370.553 633 377.554Z" fill="#E3EAED"/>
<path d="M633 377.538C613.75 359.183 488.189 248.03 471.749 233.493L481.712 228.401C481.712 228.401 627.978 370.537 632.402 376.189C632.73 376.524 632.944 377.007 633 377.538Z" fill="#E3EAED"/>
<path opacity="0.5" d="M633 377.538C613.75 359.183 488.189 248.03 471.749 233.493L481.712 228.401C481.712 228.401 627.978 370.537 632.402 376.189C632.73 376.524 632.944 377.007 633 377.538Z" fill="white"/>
<g opacity="0.5">
<path opacity="0.1" d="M633 377.541C633 382.123 613.252 383.6 610.562 382.633C607.872 381.665 392.657 273.466 392.657 273.466L471.749 233.47C471.749 233.47 452.2 262.035 498.61 306.002C530.235 335.967 563.912 342.179 576.327 326.369C602.79 349.995 625.647 370.54 633 377.541Z" fill="black"/>
</g>
<path d="M453.754 308.957C447.637 312.75 441.001 315.703 440.503 307.862C440.323 304.654 442.276 301.217 452.1 295.133C454.392 293.707 460.071 290.55 461.685 297.068C463.3 303.585 456.046 307.506 453.754 308.957Z" fill="#E3EAED"/>
<path opacity="0.1" d="M453.754 308.957C447.637 312.75 441.001 315.703 440.503 307.862C440.323 304.654 442.276 301.217 452.1 295.133C454.392 293.707 460.071 290.55 461.685 297.068C463.3 303.585 456.046 307.506 453.754 308.957Z" fill="black"/>
<path d="M503.632 335.022C497.515 338.815 490.859 341.794 490.381 333.952C490.182 330.719 492.134 327.282 501.978 321.223C504.27 319.797 509.949 316.666 511.563 323.183C513.178 329.701 505.924 333.596 503.632 335.022Z" fill="#E3EAED"/>
<path opacity="0.1" d="M503.632 335.022C497.515 338.815 490.859 341.794 490.381 333.952C490.182 330.719 492.134 327.282 501.978 321.223C504.27 319.797 509.949 316.666 511.563 323.183C513.178 329.701 505.924 333.596 503.632 335.022Z" fill="black"/>
<path d="M553.49 361.112C547.393 364.905 540.737 367.884 540.259 360.042C540.059 356.835 542.012 353.398 551.836 347.313C554.148 345.913 559.807 342.756 561.441 349.273C563.075 355.791 555.802 359.686 553.49 361.112Z" fill="#E3EAED"/>
<path opacity="0.1" d="M553.49 361.112C547.393 364.905 540.737 367.884 540.259 360.042C540.059 356.835 542.012 353.398 551.836 347.313C554.148 345.913 559.807 342.756 561.441 349.273C563.075 355.791 555.802 359.686 553.49 361.112Z" fill="black"/>
<path d="M537.15 292.685C531.172 306.356 517.502 311.269 508.873 315.597C485.937 327.308 469.318 333.877 461.048 307.272C460.066 304.199 459.449 300.955 459.215 297.649C457.86 277.588 474.14 267.557 482.39 262.007C492.354 255.286 499.408 250.958 504.669 248.132C513.237 243.498 517.063 243.04 520.989 242.76C525.632 242.556 536.094 244.058 539.541 268.601C541.031 276.735 540.182 285.283 537.15 292.685Z" fill="#E3EAED"/>
<path d="M537.468 273.522C537.468 288.467 530.155 300.585 521.128 300.585C512.101 300.585 504.788 288.467 504.788 273.522C504.788 258.578 512.101 246.46 521.128 246.46C530.155 246.46 537.468 258.578 537.468 273.522Z" fill="#455A64"/>
<path d="M535.556 273.517C535.556 286.73 529.099 297.423 521.129 297.423C513.158 297.423 506.681 286.73 506.681 273.517C506.681 260.304 513.158 249.586 521.129 249.586C529.099 249.586 535.556 260.304 535.556 273.517Z" fill="#F0F0F0"/>
<path d="M194.999 266.34L191.213 268.122L182.684 272.068L153.192 255.8C124.656 240.143 90.7795 221.711 84.3031 218.859L85.1201 219.165L85.8774 219.47L86.8737 219.878L87.4317 220.132L89.6835 221.049L91.995 222.016L98.4714 224.74L100.703 225.682L102.696 226.573L103.832 227.057L107.359 228.559L109.69 229.552L140.04 242.587L142.909 243.834L154.208 248.697L173.697 257.124L176.447 258.32C179.595 259.67 182.425 260.866 184.936 261.986L187.108 262.928L188.104 263.361L188.622 263.565C192.687 265.372 194.999 266.34 194.999 266.34Z" fill="#E3EAED"/>
<path opacity="0.5" d="M194.999 266.34L191.213 268.122L182.684 272.068L153.192 255.8C124.656 240.143 90.7795 221.711 84.3031 218.859L85.1201 219.165L85.8774 219.47L86.8737 219.878L87.4317 220.132L89.6835 221.049L91.995 222.016L98.4714 224.74L100.703 225.682L102.696 226.573L103.832 227.057L107.359 228.559L109.69 229.552L140.04 242.587L142.909 243.834L154.208 248.697L173.697 257.124L176.447 258.32C179.595 259.67 182.425 260.866 184.936 261.986L187.108 262.928L188.104 263.361L188.622 263.565C192.687 265.372 194.999 266.34 194.999 266.34Z" fill="white"/>
<g opacity="0.1">
<path opacity="0.1" d="M182.684 272.068L159.847 282.71C159.847 282.71 108.834 252.465 78.4048 233.498C83.4464 236.247 135.078 265.296 147.791 261.248C148.974 260.98 150.085 260.342 151.028 259.391C151.97 258.441 152.713 257.207 153.192 255.8L182.684 272.068Z" fill="black"/>
</g>
<path d="M241.45 230.471L186.032 264.535C186.032 264.535 186.59 203.816 187.029 160.154C187.029 158.652 187.029 157.176 187.029 155.725C187.029 154.273 187.029 153.331 187.029 152.16C187.168 137.216 187.308 125.174 187.367 119.7C187.567 102.134 189.041 98.5696 192.688 101.421C196.335 104.272 212.516 122.272 217.378 130.291C221.363 136.86 230.211 176.728 235.97 204.122C235.97 204.376 235.97 204.58 236.09 204.809C236.428 206.413 236.767 207.966 237.066 209.442C239.716 221.764 241.45 230.471 241.45 230.471Z" fill="#E3EAED"/>
<g opacity="0.1">
<path opacity="0.1" d="M241.45 230.465L186.032 264.529C186.032 264.529 186.59 203.81 187.028 160.148C195.179 183.418 211.3 215.19 237.145 209.436C239.716 221.758 241.45 230.465 241.45 230.465Z" fill="black"/>
</g>
<path d="M147.314 301.651C141.615 283.422 165.826 266.874 193.326 251.115C220.825 235.356 491.876 82.6293 531.172 69.0088C570.469 55.3884 616.222 74.1006 623.953 102.691C635.551 145.716 586.67 181.766 411.091 274.766C388.075 286.961 285.17 318.53 227.302 318.759C165.408 319.014 150.124 310.51 147.314 301.651Z" fill="#E3EAED"/>
<path opacity="0.5" d="M147.314 301.651C141.615 283.422 165.826 266.874 193.326 251.115C220.825 235.356 491.876 82.6293 531.172 69.0088C570.469 55.3884 616.222 74.1006 623.953 102.691C635.551 145.716 586.67 181.766 411.091 274.766C388.075 286.961 285.17 318.53 227.302 318.759C165.408 319.014 150.124 310.51 147.314 301.651Z" fill="white"/>
<path opacity="0.1" d="M411.07 274.869C388.054 287.064 285.15 318.607 227.281 318.862C165.407 319.117 150.123 310.715 147.313 301.754C144.324 292.232 149.525 283.143 159.11 274.386C159.046 276.232 159.298 278.073 159.848 279.783C162.418 287.93 176.288 295.542 232.423 295.313C284.931 295.084 360.455 240.755 381.319 229.706C540.637 145.208 602.91 138.181 592.328 99.204C587.745 82.1975 568.416 69.0862 545.639 65.4966C580.95 60.0993 617.138 77.5386 623.933 102.743C635.53 145.717 586.649 181.767 411.07 274.869Z" fill="black"/>
<path d="M233.24 241.579L239.457 238.117V249.828L233.24 253.265V241.579Z" fill="#455A64"/>
<path d="M244.598 235.281L251.254 231.589V243.3L244.598 246.966V235.281Z" fill="#455A64"/>
<path d="M256.375 228.77L263.031 225.079V236.79L256.375 240.456V228.77Z" fill="#455A64"/>
<path d="M268.172 222.248L274.808 218.557V230.268L268.172 233.934V222.248Z" fill="#455A64"/>
<path d="M279.949 215.726L286.605 212.035V223.746L279.949 227.412V215.726Z" fill="#455A64"/>
<path d="M291.746 209.21L298.382 205.518V217.229L291.746 220.921V209.21Z" fill="#455A64"/>
<path d="M303.523 202.694L310.179 199.002V210.713L303.523 214.405V202.694Z" fill="#455A64"/>
<path d="M315.3 196.177L321.956 192.486V204.197L315.3 207.888V196.177Z" fill="#455A64"/>
<path d="M327.097 189.672L333.733 185.981V197.692L327.097 201.383V189.672Z" fill="#455A64"/>
<path d="M338.874 183.145L345.529 179.453V191.164L338.874 194.83V183.145Z" fill="#455A64"/>
<path d="M350.671 176.629L357.307 172.937V184.648L350.671 188.314V176.629Z" fill="#455A64"/>
<path d="M362.448 170.112L369.103 166.421V178.132L362.448 181.798V170.112Z" fill="#455A64"/>
<path d="M374.225 163.593L380.88 159.927V171.612L374.225 175.278V163.593Z" fill="#455A64"/>
<path d="M386.022 157.065L392.658 153.399V165.085L386.022 168.751V157.065Z" fill="#455A64"/>
<path d="M397.799 150.56L404.454 146.894V158.58L397.799 162.246V150.56Z" fill="#455A64"/>
<path d="M409.575 144.044L416.231 140.378V152.064L409.575 155.755V144.044Z" fill="#455A64"/>
<path d="M421.372 137.517L428.027 133.851V145.536L421.372 149.228V137.517Z" fill="#455A64"/>
<path d="M433.15 131L439.805 127.334V139.02L433.15 142.711V131Z" fill="#455A64"/>
<path d="M444.946 124.49L451.582 120.824V132.509L444.946 136.201V124.49Z" fill="#455A64"/>
<path d="M456.725 117.968L463.38 114.302V125.987L456.725 129.679V117.968Z" fill="#455A64"/>
<path d="M468.5 111.457L475.156 107.791V119.477L468.5 123.168V111.457Z" fill="#455A64"/>
<path d="M486.953 101.263V112.949L480.297 116.641V104.93L486.953 101.263Z" fill="#455A64"/>
<path d="M498.73 94.7472V106.433L492.075 110.124V98.4133L498.73 94.7472Z" fill="#455A64"/>
<path d="M510.507 88.2309V99.9165L503.871 103.608V91.897L510.507 88.2309Z" fill="#455A64"/>
<path d="M522.304 81.7146V93.4002L515.648 97.0917V85.3807L522.304 81.7146Z" fill="#455A64"/>
<path d="M553.092 76.9249C556.75 73.3694 560.963 70.8602 565.447 69.5674V77.205C561.501 77.1541 557.436 77.0268 553.092 76.9249Z" fill="#455A64"/>
<path d="M579.933 67.7098V78.4534C576.825 78.0969 573.736 77.8678 570.607 77.6641V68.2699C573.695 67.7008 576.818 67.5132 579.933 67.7098Z" fill="#455A64"/>
<path d="M609.565 82.8879C606.954 82.8879 604.563 82.226 602.172 81.8696C599.781 81.5131 597.449 80.953 595.118 80.673C591.73 80.0111 588.382 79.5528 585.154 79.1455V68.4019C589.209 69.1063 593.175 70.4842 596.951 72.5007C599.294 73.7214 601.547 75.2038 603.686 76.9306C604.776 77.7622 605.816 78.6984 606.795 79.731C607.692 80.7494 608.668 81.7677 609.565 82.8879Z" fill="#455A64"/>
<g opacity="0.1">
<path opacity="0.1" d="M397.799 178.134L319.684 226.149C319.684 226.149 195.538 141.117 106.463 78.9974C113.437 83.4781 273.154 186.306 294.018 170.878C301.889 165.048 303.982 150.002 303.404 133.377L397.799 178.134Z" fill="black"/>
</g>
<path d="M182.684 272.072L159.848 282.714C159.848 282.714 108.834 252.469 78.4053 233.502L78.0865 233.324L77.668 233.069L68.8601 227.57C60.9889 222.479 56.0071 219.118 56.2063 218.66C57.0433 216.496 75.9742 215.961 83.5465 218.66H83.7657L84.244 218.864C90.541 221.588 122.325 238.849 150.243 254.175L150.881 254.506L153.132 255.753L182.684 272.072Z" fill="#E3EAED"/>
<path d="M397.799 178.128L319.684 226.143C319.684 226.143 195.537 141.111 106.463 78.9913L106.263 78.8386C58.7169 45.7422 22.4095 19.8761 23.0073 18.8832C24.5018 16.3373 48.4145 16.6174 57.8799 18.2722C58.7944 18.3849 59.7006 18.5892 60.59 18.8832C64.5755 20.2834 205.082 86.7563 303.443 133.448L397.799 178.128Z" fill="#E3EAED"/>
<path d="M409.197 171.631L386.002 185.888C326.658 154.115 79.8197 29.4438 59.195 18.9802L58.5573 18.6492L58.0392 18.4456H57.8599C58.7744 18.5582 59.6805 18.7625 60.57 19.0566C66.7076 21.1442 409.197 171.631 409.197 171.631Z" fill="#E3EAED"/>
<path opacity="0.5" d="M409.197 171.631L386.002 185.888C326.658 154.115 79.8197 29.4438 59.195 18.9802L58.5573 18.6492L58.0392 18.4456H57.8599C58.7744 18.5582 59.6805 18.7625 60.57 19.0566C66.7076 21.1442 409.197 171.631 409.197 171.631Z" fill="white"/>
<path d="M241.908 173.96C234.276 178.695 225.966 182.412 225.369 172.611C225.129 168.588 227.561 164.286 239.856 156.75C242.725 154.968 249.819 151.022 251.812 159.296C253.805 167.57 244.798 172.178 241.908 173.96Z" fill="#E3EAED"/>
<path opacity="0.1" d="M241.908 173.96C234.276 178.695 225.966 182.412 225.369 172.611C225.129 168.588 227.561 164.286 239.856 156.75C242.725 154.968 249.819 151.022 251.812 159.296C253.805 167.57 244.798 172.178 241.908 173.96Z" fill="black"/>
<path d="M175.81 131.283C168.177 136.019 159.868 139.736 159.27 129.934C159.031 125.912 161.462 121.634 173.757 114.073C176.627 112.291 183.721 108.37 185.713 116.619C187.706 124.868 178.699 129.501 175.81 131.283Z" fill="#E3EAED"/>
<path opacity="0.1" d="M175.81 131.283C168.177 136.019 159.868 139.736 159.27 129.934C159.031 125.912 161.462 121.634 173.757 114.073C176.627 112.291 183.721 108.37 185.713 116.619C187.706 124.868 178.699 129.501 175.81 131.283Z" fill="black"/>
<path d="M109.512 88.1009C102.398 92.5307 94.646 95.9931 94.088 86.8534C93.8688 83.1109 96.0807 79.2158 107.579 72.0873C110.269 70.4325 116.825 66.7664 118.738 74.3531C120.651 81.9399 112.182 86.4715 109.512 88.1009Z" fill="#E3EAED"/>
<path opacity="0.1" d="M109.512 88.1009C102.398 92.5307 94.646 95.9931 94.088 86.8534C93.8688 83.1109 96.0807 79.2158 107.579 72.0873C110.269 70.4325 116.825 66.7664 118.738 74.3531C120.651 81.9399 112.182 86.4715 109.512 88.1009Z" fill="black"/>
<path d="M340.528 164.286C334.55 177.958 320.88 182.871 312.251 187.199C289.315 198.91 272.696 205.504 264.426 178.874C263.444 175.8 262.827 172.557 262.593 169.251C261.238 149.189 277.518 139.159 285.768 133.609C295.732 126.913 302.786 122.559 308.047 119.733C316.615 115.125 320.441 114.642 324.367 114.362C329.01 114.158 339.472 115.66 342.919 140.202C344.409 148.337 343.56 156.885 340.528 164.286Z" fill="#E3EAED"/>
<path d="M324.467 172.271C333.492 172.271 340.807 160.154 340.807 145.208C340.807 130.262 333.492 118.145 324.467 118.145C315.443 118.145 308.127 130.262 308.127 145.208C308.127 160.154 315.443 172.271 324.467 172.271Z" fill="#455A64"/>
<path d="M338.893 145.206C338.893 158.419 332.437 169.111 324.466 169.111C316.495 169.111 310.019 158.419 310.019 145.206C310.019 131.993 316.495 121.3 324.466 121.3C332.437 121.3 338.893 131.993 338.893 145.206Z" fill="#F0F0F0"/>
<path d="M91.9955 222.068L89.6839 221.1L91.9955 222.068Z" fill="#E3EAED"/>
</g>
<defs>
<filter id="filter0_d_5_9499" x="-2" y="0" width="660" height="415.928" filterUnits="userSpaceOnUse" color-interpolation-filters="sRGB">
<feFlood flood-opacity="0" result="BackgroundImageFix"/>
<feColorMatrix in="SourceAlpha" type="matrix" values="0 0 0 0 0 0 0 0 0 0 0 0 0 0 0 0 0 0 127 0" result="hardAlpha"/>
<feOffset dy="8"/>
<feGaussianBlur stdDeviation="12.5"/>
<feComposite in2="hardAlpha" operator="out"/>
<feColorMatrix type="matrix" values="0 0 0 0 0 0 0 0 0 0 0 0 0 0 0 0 0 0 0.15 0"/>
<feBlend mode="normal" in2="BackgroundImageFix" result="effect1_dropShadow_5_9499"/>
<feBlend mode="normal" in="SourceGraphic" in2="effect1_dropShadow_5_9499" result="shape"/>
</filter>
</defs>
</svg>
