<svg width="40" height="40" viewBox="0 0 40 40" fill="none" xmlns="http://www.w3.org/2000/svg">
<g clip-path="url(#clip0_16_975)">
<path d="M32.3836 21.6334C32.4502 21.1 32.5002 20.5667 32.5002 20C32.5002 19.4334 32.4502 18.9 32.3836 18.3667L35.9002 15.6167C36.2169 15.3667 36.3002 14.9167 36.1002 14.55L32.7669 8.78337C32.6169 8.51671 32.3336 8.36671 32.0336 8.36671C31.9336 8.36671 31.8336 8.38337 31.7502 8.41671L27.6002 10.0834C26.7336 9.41671 25.8002 8.86671 24.7836 8.45004L24.1502 4.03337C24.1002 3.63337 23.7502 3.33337 23.3336 3.33337H16.6669C16.2502 3.33337 15.9002 3.63337 15.8502 4.03337L15.2169 8.45004C14.2002 8.86671 13.2669 9.43337 12.4002 10.0834L8.25022 8.41671C8.15022 8.38337 8.05022 8.36671 7.95022 8.36671C7.66689 8.36671 7.38355 8.51671 7.23355 8.78337L3.90022 14.55C3.68355 14.9167 3.78355 15.3667 4.10022 15.6167L7.61689 18.3667C7.55022 18.9 7.50022 19.45 7.50022 20C7.50022 20.55 7.55022 21.1 7.61689 21.6334L4.10022 24.3834C3.78355 24.6334 3.70022 25.0834 3.90022 25.45L7.23355 31.2167C7.38355 31.4834 7.66689 31.6334 7.96689 31.6334C8.06689 31.6334 8.16689 31.6167 8.25022 31.5834L12.4002 29.9167C13.2669 30.5834 14.2002 31.1334 15.2169 31.55L15.8502 35.9667C15.9002 36.3667 16.2502 36.6667 16.6669 36.6667H23.3336C23.7502 36.6667 24.1002 36.3667 24.1502 35.9667L24.7836 31.55C25.8002 31.1334 26.7336 30.5667 27.6002 29.9167L31.7502 31.5834C31.8502 31.6167 31.9502 31.6334 32.0502 31.6334C32.3336 31.6334 32.6169 31.4834 32.7669 31.2167L36.1002 25.45C36.3002 25.0834 36.2169 24.6334 35.9002 24.3834L32.3836 21.6334ZM29.0836 18.7834C29.1502 19.3 29.1669 19.65 29.1669 20C29.1669 20.35 29.1336 20.7167 29.0836 21.2167L28.8502 23.1L30.3336 24.2667L32.1336 25.6667L30.9669 27.6834L28.8502 26.8334L27.1169 26.1334L25.6169 27.2667C24.9002 27.8 24.2169 28.2 23.5336 28.4834L21.7669 29.2L21.5002 31.0834L21.1669 33.3334H18.8336L18.5169 31.0834L18.2502 29.2L16.4836 28.4834C15.7669 28.1834 15.1002 27.8 14.4336 27.3L12.9169 26.1334L11.1502 26.85L9.03355 27.7L7.86689 25.6834L9.66689 24.2834L11.1502 23.1167L10.9169 21.2334C10.8669 20.7167 10.8336 20.3334 10.8336 20C10.8336 19.6667 10.8669 19.2834 10.9169 18.7834L11.1502 16.9L9.66689 15.7334L7.86689 14.3334L9.03355 12.3167L11.1502 13.1667L12.8836 13.8667L14.3836 12.7334C15.1002 12.2 15.7836 11.8 16.4669 11.5167L18.2336 10.8L18.5002 8.91671L18.8336 6.66671H21.1502L21.4669 8.91671L21.7336 10.8L23.5002 11.5167C24.2169 11.8167 24.8836 12.2 25.5502 12.7L27.0669 13.8667L28.8336 13.15L30.9502 12.3L32.1169 14.3167L30.3336 15.7334L28.8502 16.9L29.0836 18.7834ZM20.0002 13.3334C16.3169 13.3334 13.3336 16.3167 13.3336 20C13.3336 23.6834 16.3169 26.6667 20.0002 26.6667C23.6836 26.6667 26.6669 23.6834 26.6669 20C26.6669 16.3167 23.6836 13.3334 20.0002 13.3334ZM20.0002 23.3334C18.1669 23.3334 16.6669 21.8334 16.6669 20C16.6669 18.1667 18.1669 16.6667 20.0002 16.6667C21.8336 16.6667 23.3336 18.1667 23.3336 20C23.3336 21.8334 21.8336 23.3334 20.0002 23.3334Z" fill="#858585"/>
</g>
<defs>
<clipPath id="clip0_16_975">
<rect width="40" height="40" fill="white"/>
</clipPath>
</defs>
</svg>
