<svg width="142" height="167" viewBox="0 0 142 167" fill="none" xmlns="http://www.w3.org/2000/svg">
<path d="M15.9763 0H14.7863C14.0363 0 13.2763 0.170327 12.5463 0.295238L11.6563 0.442866C10.7563 0.579133 9.85632 0.760826 9.17632 0.908448L8.34631 1.06743C7.76449 1.15938 7.18709 1.28445 6.61631 1.44216C6.25631 1.55572 5.88631 1.69198 5.50631 1.85096C5.06292 2.03537 4.62892 2.24766 4.20632 2.48687C3.8498 2.74244 3.51502 3.03515 3.20632 3.36123L3.10632 3.46345L3.00631 3.56564C2.62457 3.96264 2.28857 4.41286 2.00631 4.90559C1.8595 5.1535 1.73233 5.41571 1.62631 5.68913L1.37631 5.93895C0.756985 6.64763 0.399296 7.59807 0.376314 8.59615C0.246314 10.4925 0.096313 13.0135 0.016313 15.5798C0.016313 16.3406 0.016313 17.1128 0.016313 17.8509C0.016313 18.1462 0.016313 18.4301 0.016313 18.714C0.016313 19.9517 0.016313 21.1895 0.016313 22.4272C0.016313 24.0284 0.016313 25.6522 0.016313 27.2306C0.016313 29.9673 -0.0536851 32.7835 0.0963149 35.5542C0.172417 36.9218 0.31934 38.283 0.536317 39.6309C0.710294 40.6968 1.04884 41.7194 1.53632 42.6515C2.43594 44.2307 3.75187 45.4468 5.29631 46.1263C6.04849 46.5077 6.82799 46.8154 7.62631 47.0461C8.28631 47.2277 8.96631 47.3413 9.62631 47.4549C10.5663 47.6025 11.5163 47.716 12.3263 47.8069C13.1363 47.8977 14.0563 47.9772 15.0163 48.034C15.9763 48.0908 16.6763 48.1135 17.3963 48.1135C18.5397 48.1211 19.6823 48.0414 20.8163 47.875L21.2663 47.8182C21.8374 47.7455 22.4048 47.6394 22.9663 47.5003C23.4665 47.37 23.9604 47.2108 24.4463 47.0234C25.5131 46.6181 26.5497 46.1168 27.5463 45.5244C27.9123 45.3027 28.2663 45.0562 28.6063 44.7863C29.1876 44.3687 29.7304 43.8855 30.2263 43.3442C31.0402 42.453 31.7163 41.4127 32.2263 40.2668C32.8614 38.8298 33.3222 37.3019 33.5963 35.7246C33.8344 34.3316 34.0079 32.9253 34.1163 31.5117C34.2863 29.5812 34.3163 27.6054 34.3563 25.6863V25.0844C34.3563 22.7225 34.4163 20.5422 34.4163 18.396C34.4218 16.0027 34.2006 13.6156 33.7563 11.2761C33.5024 10.0039 33.1199 8.76931 32.6163 7.59687C32.1988 6.63 31.6138 5.76871 30.8963 5.06457C30.2876 4.46852 29.6158 3.96118 28.8963 3.55429C27.8687 3.02658 26.8134 2.57147 25.7363 2.19161L25.2563 2.00994C24.6463 1.78283 24.0063 1.54435 23.3763 1.33995C21.4171 0.692942 19.408 0.259472 17.3763 0.0454146C17.0063 0.0227035 16.4863 0 15.9763 0Z" fill="#03A9F4"/>
<path d="M72.7464 28.6499C73.3331 28.6499 73.9231 28.6499 74.5164 28.6499C75.9492 28.7309 77.3738 28.9436 78.7764 29.2858C79.3699 29.4271 79.952 29.6246 80.5164 29.8763C81.2705 30.1729 81.9867 30.5815 82.6464 31.0914C83.3875 31.6337 83.9582 32.4288 84.2764 33.3625C84.4774 33.8517 84.6478 34.3564 84.7864 34.8727C84.9691 35.5411 85.1062 36.2245 85.1964 36.9167C85.5915 40.1019 85.712 43.3232 85.5564 46.5349C85.5564 48.0452 85.4964 49.5668 85.4364 51.0771C85.4014 52.7642 85.2812 54.4476 85.0764 56.119C85.0219 56.7242 84.9009 57.3193 84.7164 57.8905C84.5625 58.3794 84.3752 58.854 84.1564 59.3099C83.9365 59.745 83.6857 60.159 83.4064 60.5477C83.164 60.912 82.8855 61.2435 82.5764 61.5356C82.2622 61.8135 81.9276 62.0604 81.5764 62.2737C81.3251 62.4271 81.0644 62.5599 80.7964 62.6712C80.5002 62.8142 80.1962 62.9355 79.8864 63.0345C79.5844 63.133 79.2771 63.2089 78.9664 63.2616C78.4964 63.3298 78.0364 63.4206 77.5664 63.4547C76.2264 63.5569 74.8864 63.5796 73.5664 63.5342L71.4664 63.432L70.4664 63.3298C70.0031 63.2827 69.5424 63.2069 69.0864 63.1027C68.6901 63.0309 68.3014 62.9129 67.9264 62.7506C67.4241 62.5402 66.9444 62.2659 66.4964 61.933C66.0189 61.5631 65.6082 61.0929 65.2864 60.5477C64.9907 60.0085 64.7492 59.4333 64.5664 58.833C64.3094 57.9584 64.1515 57.0502 64.0964 56.1303C63.9631 54.7276 63.9096 53.3166 63.9364 51.9061C63.9364 48.7833 64.0464 45.6492 64.0864 42.5264C64.0864 41.0123 64.0864 39.4982 64.0864 37.9842V37.3823C64.0282 36.7639 64.0048 36.1418 64.0164 35.52C64.0164 35.3838 64.0164 35.2475 64.0164 35.1112C64.0164 34.5321 64.0164 33.9757 63.9464 33.3852C63.9353 33.0613 63.9889 32.7388 64.1032 32.4418C64.2175 32.1449 64.3895 31.8812 64.6064 31.6705C64.6898 31.4837 64.7868 31.3052 64.8964 31.1368C65.2764 30.5109 65.7888 30.0033 66.3864 29.6605C66.7564 29.4478 67.141 29.2693 67.5364 29.1268C67.8228 29.0402 68.1132 28.9719 68.4064 28.9224C69.1702 28.7768 69.9421 28.6934 70.7164 28.6726L72.7464 28.6499ZM69.1764 32.9082C68.9462 32.9551 68.719 33.0196 68.4964 33.1013L68.2764 33.2489L68.2064 33.3284V33.3852C68.2864 34.8273 68.3564 36.2695 68.3864 37.723C68.4664 40.7511 68.5331 43.802 68.5864 46.8756C68.5864 49.794 68.5864 52.701 68.9364 55.5966C69.0198 56.2633 69.1537 56.9206 69.3364 57.5612V57.6406L69.5364 57.7655C70.0069 57.9417 70.4882 58.0783 70.9764 58.1743C72.1964 58.3333 73.4264 58.4355 74.6564 58.515C75.9116 58.6116 77.1712 58.6116 78.4264 58.515C78.8614 58.4304 79.2896 58.3051 79.7064 58.1403L80.0164 57.9359C80.1472 57.7966 80.2708 57.6487 80.3864 57.493C80.5353 57.2346 80.6689 56.9653 80.7864 56.6868C80.8861 56.3718 80.9663 56.0492 81.0264 55.7215C81.2362 52.9045 81.3163 50.0769 81.2664 47.2503C81.325 44.2689 81.2482 41.286 81.0364 38.3135C80.9142 37.2745 80.7032 36.2514 80.4064 35.2588L80.3064 35.0658L80.1464 34.8727C79.8256 34.6431 79.4915 34.4382 79.1464 34.2596C78.9064 34.1574 78.6764 34.0552 78.4264 33.9757C78.1764 33.8962 77.6664 33.7372 77.2864 33.635C76.5683 33.4265 75.8405 33.2635 75.1064 33.1467C74.1064 33.0104 73.1764 32.8969 72.2064 32.8288L70.4864 32.8401C70.0489 32.8305 69.6113 32.8533 69.1764 32.9082Z" fill="#03A9F4"/>
<path d="M102.236 105.516C103.526 105.516 104.826 105.516 106.116 105.618C106.766 105.618 107.406 105.72 108.056 105.72C108.706 105.72 109.256 105.72 109.856 105.72C111.29 105.763 112.716 105.96 114.116 106.311C115.356 106.629 116.606 106.901 117.846 107.242C119.412 107.522 120.911 108.168 122.246 109.138C122.689 109.49 123.098 109.893 123.466 110.342C123.867 110.817 124.203 111.357 124.466 111.943C124.827 112.762 125.118 113.617 125.336 114.498C125.676 115.872 125.976 117.257 126.286 118.643C126.936 121.482 127.346 124.321 127.746 127.273C127.956 128.761 128.176 130.248 128.356 131.747C128.576 133.53 128.716 135.324 128.806 137.13C128.946 140.105 129.066 143.08 128.986 146.055C128.986 147.713 128.876 149.371 128.796 151.029C128.707 152.786 128.536 154.538 128.286 156.275C128.139 157.279 127.877 158.256 127.506 159.182C127.207 159.887 126.827 160.543 126.376 161.135C125.863 161.818 125.255 162.401 124.576 162.861C123.989 163.259 123.378 163.608 122.746 163.906H122.676L122.346 164.065L122.206 164.133C121.596 164.417 120.976 164.701 120.346 164.951C119.716 165.201 119.096 165.405 118.466 165.609L117.286 165.984C116.47 166.209 115.642 166.372 114.806 166.472C114.186 166.563 113.546 166.631 112.916 166.688C110.157 166.906 107.39 166.959 104.626 166.847C101.742 166.796 98.8652 166.477 96.0263 165.893C94.7487 165.623 93.4864 165.267 92.2463 164.826C91.447 164.543 90.6624 164.21 89.8963 163.827C89.3153 163.556 88.7674 163.201 88.2663 162.77C87.614 162.263 87.0594 161.61 86.6363 160.851C86.3463 160.286 86.1339 159.673 86.0063 159.034C85.8516 158.116 85.7514 157.186 85.7063 156.252C85.6263 154.81 85.5963 153.368 85.6363 151.926C85.8263 145.658 85.9163 139.378 86.0263 133.11C86.0963 129.226 86.1663 125.343 86.1963 121.459C86.1053 121.344 86.0248 121.218 85.9563 121.084C85.7773 120.74 85.684 120.348 85.6863 119.949C85.6113 118.481 85.6113 117.01 85.6863 115.543C85.655 113.822 85.9625 112.115 86.5863 110.546C87.0316 109.522 87.7255 108.663 88.5863 108.071C89.2221 107.69 89.8928 107.389 90.5863 107.174C91.1763 106.981 91.7663 106.742 92.3763 106.595C92.9863 106.447 93.5463 106.288 94.1363 106.186C94.7263 106.084 95.3163 105.97 95.9063 105.856C96.6763 105.72 97.4463 105.629 98.2263 105.55C99.4863 105.516 100.876 105.516 102.236 105.516ZM94.8163 110.83L93.2963 111.08L93.6263 111.023C93.0363 111.148 92.4563 111.307 91.8763 111.489C91.4763 111.614 91.0763 111.727 90.6863 111.886L90.3263 112.102L90.2263 112.227C90.1063 112.431 89.9963 112.624 89.8863 112.84C89.7763 113.056 89.7963 113.249 89.7563 113.465C89.6763 114.419 89.6763 115.395 89.6663 116.36C89.6563 117.326 89.6663 117.973 89.6663 118.779V119.483C89.7263 125.683 89.8463 131.895 89.9663 138.095C90.0263 141.308 90.0763 144.511 90.1463 147.713C90.2063 150.506 90.2763 153.3 90.5663 156.071C90.6343 156.701 90.748 157.324 90.9063 157.933V158.035L91.1663 158.319C91.5303 158.592 91.9113 158.835 92.3063 159.046C93.3358 159.494 94.3876 159.873 95.4563 160.181C96.0563 160.352 96.6563 160.522 97.2663 160.647C97.8763 160.772 98.6763 160.92 99.3863 161.033C102.043 161.352 104.714 161.499 107.386 161.476C108.686 161.476 109.976 161.476 111.266 161.476C112.556 161.476 113.636 161.306 114.816 161.147C115.975 160.895 117.117 160.558 118.236 160.136C118.976 159.886 119.696 159.58 120.416 159.25L120.746 159.08C121.258 158.817 121.75 158.506 122.216 158.149L122.606 157.729C122.716 157.536 122.816 157.331 122.916 157.127C123.061 156.626 123.172 156.114 123.246 155.594C123.374 154.179 123.438 152.758 123.436 151.335C123.436 149.678 123.436 148.008 123.436 146.35C123.436 144.692 123.376 143.25 123.306 141.706C123.166 138.856 123.046 136.028 122.736 133.189C122.496 131.213 122.216 129.249 121.986 127.284C121.756 125.32 121.426 123.071 120.986 120.971C120.786 119.903 120.586 118.824 120.356 117.757C120.126 116.69 119.966 115.929 119.696 115.043C119.596 114.839 119.496 114.634 119.386 114.441C119.25 114.26 119.103 114.089 118.946 113.93C118.789 113.813 118.625 113.707 118.456 113.612C117.238 113.109 115.996 112.685 114.736 112.34C114.056 112.147 113.376 111.943 112.736 111.727C112.187 111.553 111.63 111.417 111.066 111.318C110.546 111.25 110.066 111.205 109.506 111.159C108.946 111.114 108.356 111.159 107.776 111.069L105.926 110.91C104.566 110.807 103.196 110.717 101.826 110.648C100.456 110.58 99.1963 110.501 97.8863 110.558C96.8763 110.546 95.8463 110.683 94.8163 110.83Z" fill="#99DDC6"/>
<path d="M112.376 40.1758H113.376C114.716 40.1758 116.056 40.278 117.376 40.3688C118.696 40.4597 120.096 40.5619 121.456 40.63C122.816 40.6981 124.026 40.8685 125.316 40.9593C126.606 41.0501 127.956 41.1978 129.316 41.3C130.779 41.3563 132.229 41.6157 133.636 42.0722C134.375 42.3577 135.091 42.7148 135.776 43.1396C136.561 43.591 137.261 44.212 137.836 44.9678C138.32 45.6208 138.726 46.3422 139.046 47.114C139.356 47.943 139.636 48.7719 139.876 49.6349C140.274 51.0076 140.566 52.4173 140.746 53.8479C140.961 55.5637 141.082 57.2931 141.106 59.026C141.105 60.4456 141.028 61.8638 140.876 63.273C140.726 64.9763 140.616 66.6796 140.346 68.3716C140.128 69.8561 139.794 71.3155 139.346 72.7322C139.08 73.5573 138.745 74.3519 138.346 75.1055C138.154 75.4317 137.947 75.7463 137.726 76.048C137.6 76.256 137.456 76.45 137.296 76.6271C136.873 77.0653 136.407 77.4464 135.906 77.7627C134.458 78.5825 132.873 79.0467 131.256 79.1253C129.926 79.2957 128.596 79.4206 127.256 79.5114C125.916 79.6023 124.586 79.6023 123.256 79.6136C121.926 79.625 120.606 79.6136 119.256 79.6136C117.906 79.6136 116.446 79.6136 115.036 79.5228C113.626 79.4319 112.486 79.3184 111.216 79.2162C109.946 79.114 108.566 78.9664 107.216 78.7847C106.306 78.6598 105.396 78.5348 104.496 78.3304C103.821 78.1822 103.154 77.9926 102.496 77.7627C100.764 77.3094 99.1859 76.2911 97.9564 74.8329C97.6089 74.3781 97.2945 73.892 97.0164 73.3794C96.742 72.8441 96.511 72.2816 96.3264 71.6988C96.0419 70.7386 95.8573 69.7439 95.7764 68.735C95.6514 67.3115 95.6514 65.8774 95.7764 64.4539C95.8764 62.8642 96.0564 61.2744 96.2464 59.696L96.6364 56.4029C96.8264 54.5633 97.0064 52.735 97.2764 50.9181C97.3895 50.1924 97.5431 49.4755 97.7364 48.7719C97.9172 48.0988 98.1343 47.4389 98.3864 46.7961C98.6691 46.1471 99.0218 45.5406 99.4364 44.9905C99.9398 44.269 100.533 43.6341 101.196 43.1055L101.486 43.0601L101.676 42.9238C102.236 42.5516 102.821 42.2325 103.426 41.9699C104.901 41.2161 106.5 40.8289 108.116 40.8344C108.404 40.6541 108.728 40.5603 109.056 40.5619H109.346C110.026 40.4597 110.696 40.3688 111.346 40.3234C111.716 40.1871 112.046 40.1758 112.376 40.1758ZM108.756 46.3873C108.561 46.4131 108.368 46.451 108.176 46.5008C107.734 46.6123 107.3 46.7603 106.876 46.9437C106.216 47.2616 105.581 47.6415 104.976 48.0792L104.776 48.2269C104.639 48.3736 104.509 48.529 104.386 48.6924C104.204 48.9935 104.04 49.3084 103.896 49.6349C103.631 50.5888 103.43 51.5645 103.296 52.5533C102.996 55.3014 102.806 58.0721 102.506 60.8202C102.346 62.3532 102.226 63.8862 102.156 65.4305C102.086 66.6291 102.086 67.8316 102.156 69.0302C102.226 69.3595 102.296 69.6889 102.386 70.0182C102.487 70.2327 102.597 70.4412 102.716 70.6427L102.856 70.8131C103.143 71.0186 103.44 71.2044 103.746 71.3695C104.541 71.7218 105.356 72.0102 106.186 72.2325C107.076 72.471 107.996 72.6072 108.906 72.7662C110.006 72.9252 111.106 73.0501 112.206 73.2091C113.576 73.4135 114.936 73.5384 116.316 73.6179C119.026 73.7882 121.746 73.8223 124.466 73.8677C126.941 73.9229 129.417 73.7901 131.876 73.4703C132.335 73.3949 132.787 73.2733 133.226 73.1069L133.646 72.8344L133.836 72.6072C134.111 72.1303 134.352 71.6291 134.556 71.1083C134.946 69.7099 135.237 68.2783 135.426 66.8273C135.526 65.8961 135.596 64.965 135.656 64.0338C135.716 63.1026 135.836 62.0011 135.906 60.9791C135.976 59.9571 135.986 58.867 135.976 57.7996C135.966 56.7322 135.926 55.7442 135.826 54.7222C135.718 53.7245 135.557 52.7349 135.346 51.7584C135.139 50.7599 134.885 49.7744 134.586 48.806C134.479 48.5392 134.355 48.2812 134.216 48.0338L134.126 47.9316C133.849 47.7285 133.562 47.5428 133.266 47.3752C132.673 47.1239 132.06 46.9338 131.436 46.8074C130.436 46.7052 129.436 46.6825 128.516 46.603C127.396 46.5008 126.276 46.4554 125.156 46.3532C123.846 46.251 122.536 46.1261 121.226 46.058C119.916 45.9898 118.716 45.9217 117.456 45.8308H116.836C114.126 46.0012 111.426 46.0579 108.756 46.3873Z" fill="#4D4962"/>
<path d="M68.9963 90.9353C68.9963 91.2191 68.9963 91.4917 68.9963 91.7756C68.9963 92.9111 68.9363 94.0467 68.8763 95.1822C68.8163 96.3178 68.7463 97.5215 68.6963 98.6911C68.6463 99.8607 68.5463 100.894 68.4863 102.007C68.4263 103.12 68.3263 104.278 68.2463 105.414C68.2118 106.674 68.0405 107.925 67.7363 109.138C67.5494 109.771 67.3117 110.383 67.0263 110.966C66.7305 111.649 66.3154 112.255 65.8063 112.749C65.3741 113.164 64.8927 113.508 64.3763 113.771C63.828 114.047 63.2672 114.289 62.6963 114.498C61.7802 114.839 60.8401 115.089 59.8863 115.248C58.7428 115.429 57.5907 115.531 56.4363 115.554C55.487 115.548 54.5387 115.48 53.5963 115.35C52.4663 115.225 51.3263 115.134 50.2063 114.895C49.2145 114.707 48.2403 114.414 47.2963 114.021C46.7429 113.784 46.2105 113.487 45.7063 113.135C45.4863 112.976 45.2863 112.783 45.0863 112.613C44.9493 112.494 44.8191 112.365 44.6963 112.227C44.3947 111.867 44.1328 111.466 43.9163 111.035C43.3667 109.79 43.0533 108.428 42.9963 107.037C42.8863 105.902 42.8063 104.766 42.7463 103.631C42.6863 102.495 42.6863 101.36 42.6763 100.224C42.6663 99.0885 42.6763 97.953 42.6763 96.8174C42.6763 95.6819 42.6763 94.3987 42.7263 93.1837C42.7763 91.9686 42.8663 91.0034 42.9363 89.9019C43.0063 88.8004 43.0963 87.6308 43.2263 86.4952C43.3063 85.7117 43.3863 84.9282 43.5263 84.156C43.6271 83.5812 43.7539 83.0126 43.9063 82.4527C44.2151 80.9532 44.9116 79.5929 45.9063 78.5463C46.2195 78.2468 46.554 77.9771 46.9063 77.7401C47.2638 77.5066 47.6385 77.309 48.0263 77.1496C48.6732 76.8979 49.3449 76.7377 50.0263 76.6727C50.9739 76.5648 51.9287 76.5648 52.8763 76.6727C53.9463 76.7522 54.9963 76.9111 56.0563 77.0815L58.2463 77.4108C59.4663 77.5811 60.6963 77.7287 61.9063 77.9558C62.389 78.0588 62.8663 78.1915 63.3363 78.3533C63.7861 78.5119 64.2269 78.7015 64.6563 78.9211C65.0882 79.161 65.4915 79.4625 65.8563 79.8182C66.336 80.2527 66.7601 80.761 67.1163 81.3284L67.2363 81.5442L67.3263 81.7032C67.5715 82.1845 67.7854 82.6854 67.9663 83.2021C68.4673 84.4739 68.7263 85.8515 68.7263 87.2447C68.8496 87.4946 68.9149 87.7759 68.9163 88.0623V88.3121C68.9863 88.8913 69.0463 89.4477 69.0763 90.0609C68.9963 90.3675 68.9963 90.6514 68.9963 90.9353ZM64.8663 87.8238C64.8663 87.6535 64.8663 87.4832 64.7863 87.3242C64.7082 86.9386 64.608 86.5593 64.4863 86.1886C64.2642 85.6213 64.0034 85.0746 63.7063 84.5534L63.5963 84.3831C63.504 84.2612 63.4037 84.1473 63.2963 84.0424C63.0956 83.8851 62.8851 83.7447 62.6663 83.6223C62.0116 83.3935 61.3432 83.2189 60.6663 83.0999C58.8363 82.8501 56.9963 82.6798 55.1563 82.4299C54.1563 82.2937 53.1563 82.1915 52.0863 82.1233C51.2871 82.0666 50.4855 82.0666 49.6863 82.1233C49.4625 82.1743 49.2419 82.2426 49.0263 82.3277C48.8798 82.405 48.7393 82.4961 48.6063 82.6003L48.4963 82.7252C48.3579 82.971 48.231 83.2249 48.1163 83.486C47.8844 84.1707 47.6939 84.8726 47.5463 85.5868C47.3863 86.359 47.2963 87.1425 47.1863 87.8579C47.0863 88.8118 46.9963 89.7656 46.8863 90.7081C46.7563 91.8437 46.6763 93.0588 46.6163 94.2397C46.5063 96.5676 46.4863 98.9069 46.4563 101.246C46.4179 103.374 46.5048 105.502 46.7163 107.617C46.7717 108.002 46.8553 108.382 46.9663 108.752C47.0188 108.874 47.0789 108.992 47.1463 109.104L47.2963 109.274C47.6153 109.508 47.9496 109.713 48.2963 109.888C49.2304 110.224 50.1868 110.475 51.1563 110.637C51.7763 110.717 52.3963 110.785 53.0163 110.83C53.6363 110.876 54.3663 110.989 55.0163 111.046C55.6663 111.103 56.4263 111.114 57.1363 111.046C57.8244 111.044 58.512 111.002 59.1963 110.921C59.8698 110.832 60.5378 110.696 61.1963 110.512C61.8729 110.334 62.5406 110.114 63.1963 109.854C63.3747 109.763 63.5483 109.66 63.7163 109.547L63.7763 109.468C63.913 109.23 64.0366 108.984 64.1463 108.729C64.3172 108.214 64.4444 107.682 64.5263 107.14C64.5963 106.311 64.6063 105.47 64.6663 104.641C64.7263 103.812 64.7663 102.711 64.8263 101.746C64.8863 100.781 64.9863 99.4746 65.0263 98.3391C65.0663 97.2035 65.1163 96.1702 65.1763 95.0914C65.1763 94.9097 65.1763 94.7394 65.1763 94.5577C65.1163 92.4342 65.0763 90.1177 64.8663 87.8238Z" fill="#4D4962"/>
</svg>
